<svg width="1034" height="678" viewBox="0 0 1034 678" fill="none" xmlns="http://www.w3.org/2000/svg">
<path d="M1027.86 278.205C1027.12 270.803 1022.61 273.98 1018.85 277.157C1015.08 280.334 1003.05 282.414 998.6 282.414C994.146 282.414 985.831 273.98 985.845 267.675C985.858 261.37 984.914 254.164 980.446 254.164C975.978 254.164 969.176 250.987 964.681 235.936C960.186 220.885 953.424 220.837 948.349 216.873C943.274 212.91 929.183 224.014 922.974 227.191C916.766 230.368 906.089 223.997 898.193 221.622C890.297 219.248 885.816 199.399 878.474 201.773C871.131 204.148 869.444 224.701 863.816 224.701C858.187 224.701 848.064 183.431 837.374 160.421C826.684 137.412 807.572 91.4084 790.673 82.6631C773.775 73.9177 778.85 62.0444 783.372 55.6901C787.893 49.3358 773.235 47.7309 766.459 53.2991C759.684 58.8673 751.234 69.1683 743.338 71.5594C735.442 73.9504 724.159 91.3921 715.709 87.4288C707.26 83.4656 703.305 102.479 696.543 93.7832C689.781 85.0869 705.573 78.6834 705.586 70.7405C705.6 62.7976 694.883 73.1317 692.089 68.3823C689.295 63.6329 680.265 58.8673 680.252 65.9913C680.238 73.1153 672.909 69.1683 672.923 63.6001C672.936 58.0319 667.875 47.7308 663.353 54.904C658.832 62.0772 643.62 65.9913 640.246 60.4231C636.871 54.8549 642.513 52.5128 643.08 45.3724C643.647 38.232 637.452 28.6842 638.586 19.9716C639.719 11.259 627.896 2.49728 622.267 5.67443C616.639 8.85158 608.77 5.67456 602.534 1.71131C596.298 -2.25194 572.098 4.10222 570.964 12.0124C569.83 19.9225 539.394 26.3096 533.765 29.4868C528.137 32.6639 505.569 37.3968 497.687 39.0017C489.805 40.6067 481.882 50.1054 471.745 50.1054C461.609 50.1054 442.443 51.7432 433.426 61.2255C424.41 70.7079 409.738 62.8633 402.976 65.9749C396.214 69.0866 384.957 64.3372 381.556 67.6126C378.155 70.888 379.302 89.8034 382.663 97.7627C386.024 105.722 404.07 108.85 405.19 113.632C406.31 118.414 387.144 118.382 378.195 119.986C369.246 121.591 371.447 137.428 373.66 145.371C375.874 153.314 364.63 161.257 357.868 164.417C351.106 167.578 357.868 183.431 364.617 183.431C371.366 183.431 377.007 191.39 382.636 191.39C388.264 191.39 389.384 207.26 389.384 216.791C389.384 226.323 382.636 229.484 373.606 229.484C364.576 229.484 360.109 219.952 354.453 218.347C348.798 216.742 349.932 232.661 345.41 235.838C340.888 239.015 339.795 224.701 333.033 224.701C326.271 224.701 318.375 223.064 316.121 213.598C313.867 204.132 298.116 202.478 291.34 211.96C284.564 221.442 282.31 216.742 276.682 210.322C271.053 203.903 254.141 213.499 251.874 221.426C249.606 229.352 237.216 232.546 228.199 224.587C219.183 216.628 213.568 213.5 213.555 224.587C213.541 235.674 206.806 226.224 206.806 219.837C206.806 213.45 192.162 200.791 185.413 194.453C178.664 188.115 157.23 188.099 156.11 181.744C154.99 175.39 141.466 170.641 138.091 181.744C134.717 192.848 129.075 184.921 124.594 181.744C120.113 178.567 109.936 186.477 105.414 189.654C100.893 192.832 86.248 207.129 78.3521 207.129C70.4561 207.129 74.9507 221.393 64.8547 224.57C54.7587 227.748 56.9588 237.279 58.1061 243.617C59.2533 249.955 64.8548 261.091 55.8385 265.841C46.8223 270.59 43.448 249.955 35.5925 242.045C27.7371 234.135 20.9479 243.683 20.9344 254.737C20.9209 265.792 11.9047 265.841 7.43706 276.961C2.96944 288.081 15.3195 289.669 15.3195 294.402C15.3195 299.135 8.57086 303.917 6.28982 305.49C4.00877 307.062 -1.61962 322.98 0.634433 327.73C2.88849 332.479 16.4128 330.907 15.279 342.027C14.1452 353.147 12.998 364.25 19.7736 361.073C26.5493 357.896 33.2709 359.436 37.806 359.436C42.3411 359.436 45.6885 372.144 53.5709 384.836C61.4534 397.529 64.8142 403.883 56.9183 407.06C49.0224 410.237 52.4102 416.592 62.5467 422.93C65.465 424.896 68.2141 427.211 70.7531 429.841C72.3661 428.368 73.8989 426.771 75.3421 425.059C88.1106 409.189 111.421 394.368 128.697 400.722C145.974 407.076 160.254 396.497 167.758 411.318C175.263 426.139 167.758 453.636 170.714 464.216C173.67 474.796 157.217 475.86 145.906 473.731C134.595 471.602 111.34 480.069 114.336 489.601C117.332 499.132 125.579 521.356 110.57 509.695C95.5612 498.035 89.5008 521.339 97.7882 521.339C106.076 521.339 117.305 535.096 117.305 544.611C117.305 554.126 118.007 575.285 125.539 572.108C133.07 568.931 133.043 587.978 143.544 586.946C154.045 585.914 163.79 591.171 155.57 604.961C147.35 618.75 160.767 656.81 163.777 648.327C165.693 643.021 164.033 631.442 167.016 624.122C161.145 604.649 186.047 604.568 193.268 604.568C201.286 604.568 215.323 621.567 224.312 638.517C233.301 655.468 242.372 644.151 242.372 644.151L245.516 485.916L309.818 461.809C310.363 459.719 311.077 457.7 311.95 455.782C320.238 438.864 331.359 452.867 335.247 456.863C338.527 460.138 336.772 438.848 345.788 439.913C354.804 440.977 345.019 461.088 351.781 461.088C357.045 461.088 369.058 487.291 365.278 507.992C375.266 519.603 393.353 546.871 394.972 553.733C396.984 562.216 423.06 548.116 428.081 550.933C433.102 553.75 472.231 553.75 479.263 553.75C486.295 553.75 491.276 572.141 499.307 575.04C507.338 577.938 504.301 596.215 505.286 608.957C506.271 621.698 518.324 634.374 519.31 645.674C520.295 656.974 533.347 651.34 541.378 654.157C549.409 656.974 561.435 661.232 562.42 672.549C563.405 683.865 573.461 675.366 574.473 666.882C575.486 658.399 585.528 647.082 600.577 638.648C607.326 634.816 611.847 634.816 615.235 636.65C618.043 626.497 620.918 617.931 622.929 616.719C628.179 613.542 637.965 602.979 638.734 592.399C639.503 581.82 659.763 581.803 673.287 591.318C686.812 600.834 695.085 600.85 695.841 586.062C696.597 571.273 716.087 567.015 722.161 571.322C728.235 575.629 746.929 590.369 755.904 585.062C764.88 579.756 810.015 586.127 821.272 590.369C832.529 594.61 835.566 584.031 845.311 599.9C853.49 613.231 857.458 601.243 866.582 611.528C866.582 607.466 865.962 602.357 865.975 596.985C865.975 586.684 877.245 577.955 879.472 570.028C881.699 562.102 869.363 538.273 869.376 530.33C869.39 522.387 869.376 503.357 863.762 499.394C858.147 495.431 874.479 485.097 878.366 485.392C886.734 485.949 898.612 473.649 902.283 478.841C905.954 484.032 913.202 485.392 920.504 485.392C927.806 485.392 924.661 473.633 920.504 468.54C916.347 463.446 933.556 415.773 936.175 399.756C938.793 383.739 945.015 398.282 953.316 399.756C961.617 401.23 971.538 399.035 976.734 402.704C981.931 406.372 996.98 398.282 1000.68 390.241C1004.38 382.2 996.521 379.989 997.061 361.663C997.601 343.337 1005.4 334.608 1013.72 334.608C1022.03 334.608 1024.65 323.603 1024.66 314.792C1024.66 306.882 1031.41 301.837 1033.5 291.766C1030.69 287.913 1028.75 283.241 1027.86 278.205Z" fill="#E6E6E6" fill-opacity="0.5"/>
<path d="M999.833 281.553C999.132 274.557 994.871 277.56 991.312 280.563C987.752 283.565 976.386 285.531 972.176 285.531C967.966 285.531 960.108 277.56 960.121 271.6C960.133 265.641 959.24 258.83 955.018 258.83C950.795 258.83 944.366 255.827 940.117 241.602C935.869 227.377 929.478 227.331 924.681 223.585C919.885 219.839 906.566 230.334 900.698 233.337C894.83 236.339 884.739 230.318 877.276 228.074C869.813 225.829 865.578 207.069 858.638 209.313C851.698 211.558 850.104 230.984 844.784 230.984C839.464 230.984 829.896 191.977 819.793 170.229C809.689 148.481 791.625 105.001 775.653 96.7355C759.681 88.4698 764.478 77.2476 768.752 71.2418C773.025 65.236 759.171 63.7192 752.767 68.982C746.363 74.2448 738.377 83.9808 730.914 86.2408C723.451 88.5007 712.787 104.986 704.801 101.24C696.815 97.494 693.077 115.465 686.686 107.246C680.294 99.0264 695.22 92.9741 695.233 85.4668C695.246 77.9596 685.117 87.7268 682.476 83.2379C679.835 78.7491 671.301 74.2448 671.288 80.9781C671.275 87.7114 664.348 83.9809 664.361 78.7181C664.373 73.4552 659.59 63.7191 655.316 70.4989C651.042 77.2786 636.665 80.9781 633.476 75.7152C630.287 70.4524 635.619 68.2388 636.155 61.4901C636.691 54.7413 630.835 45.7171 631.907 37.4823C632.978 29.2475 621.803 20.9664 616.484 23.9693C611.164 26.9722 603.726 23.9694 597.833 20.2235C591.939 16.4776 569.065 22.4833 567.994 29.9596C566.922 37.4359 538.155 43.4727 532.835 46.4756C527.516 49.4785 506.186 53.9518 498.736 55.4688C491.286 56.9857 483.797 65.9635 474.217 65.9635C464.636 65.9635 446.521 67.5114 437.999 76.4737C429.478 85.436 415.611 78.0216 409.219 80.9626C402.828 83.9036 392.189 79.4147 388.974 82.5105C385.759 85.6063 386.844 103.484 390.02 111.007C393.197 118.53 410.253 121.486 411.311 126.006C412.37 130.526 394.255 130.495 385.797 132.012C377.339 133.529 379.419 148.497 381.511 156.004C383.603 163.511 372.977 171.019 366.585 174.006C360.194 176.993 366.585 191.977 372.964 191.977C379.342 191.977 384.675 199.5 389.994 199.5C395.314 199.5 396.373 214.499 396.373 223.507C396.373 232.516 389.994 235.504 381.46 235.504C372.925 235.504 368.703 226.495 363.358 224.978C358.012 223.461 359.084 238.507 354.81 241.509C350.537 244.512 349.504 230.984 343.112 230.984C336.721 230.984 329.258 229.436 327.128 220.489C324.997 211.542 310.11 209.979 303.706 218.941C297.302 227.904 295.171 223.461 289.852 217.393C284.532 211.326 268.547 220.396 266.404 227.888C264.261 235.38 252.55 238.398 244.028 230.875C235.506 223.353 230.199 220.396 230.187 230.875C230.174 241.355 223.808 232.423 223.808 226.387C223.808 220.35 209.967 208.385 203.588 202.394C197.21 196.404 176.951 196.388 175.893 190.383C174.834 184.377 162.051 179.888 158.862 190.383C155.673 200.877 150.34 193.386 146.105 190.383C141.869 187.38 132.251 194.856 127.977 197.859C123.703 200.862 109.862 214.375 102.399 214.375C94.9362 214.375 99.1843 227.857 89.6421 230.86C80.0998 233.863 82.1792 242.872 83.2635 248.862C84.3479 254.852 89.6421 265.378 81.1203 269.867C72.5986 274.356 69.4094 254.852 61.9847 247.376C54.5601 239.9 48.1433 248.924 48.1305 259.372C48.1178 269.82 39.596 269.867 35.3734 280.377C31.1508 290.887 42.8236 292.388 42.8236 296.862C42.8236 301.335 36.4451 305.855 34.2891 307.341C32.1332 308.827 26.8135 323.872 28.9439 328.361C31.0743 332.85 43.8569 331.364 42.7853 341.874C41.7137 352.385 40.6294 362.879 47.0334 359.876C53.4375 356.873 59.7905 358.328 64.0768 358.328C68.3632 358.328 71.527 370.34 78.9771 382.336C86.4272 394.332 89.6038 400.338 82.1409 403.341C74.678 406.344 77.88 412.35 87.4606 418.34C90.2188 420.199 92.8172 422.387 95.2169 424.872C96.7414 423.48 98.1902 421.971 99.5542 420.352C111.622 405.353 133.654 391.345 149.983 397.351C166.312 403.356 179.809 393.357 186.902 407.366C193.995 421.374 186.902 447.363 189.696 457.362C192.49 467.362 176.939 468.368 166.248 466.356C155.558 464.343 133.577 472.346 136.409 481.355C139.242 490.363 147.036 511.368 132.85 500.347C118.664 489.326 112.936 511.353 120.769 511.353C128.602 511.353 139.216 524.355 139.216 533.348C139.216 542.341 139.879 562.34 146.998 559.337C154.116 556.334 154.091 574.336 164.016 573.361C173.941 572.386 183.151 577.355 175.382 590.388C167.613 603.421 180.294 639.394 183.139 631.376C184.95 626.361 183.381 615.417 186.2 608.498C180.651 590.094 204.188 590.016 211.013 590.016C218.59 590.016 231.858 606.083 240.354 622.104C248.85 638.125 257.423 627.429 257.423 627.429L260.395 477.872L321.17 455.087C321.685 453.112 322.36 451.204 323.186 449.391C331.019 433.401 341.53 446.635 345.204 450.412C348.304 453.508 346.646 433.386 355.168 434.392C363.689 435.398 354.441 454.406 360.832 454.406C365.807 454.406 377.161 479.172 373.589 498.737C383.029 509.712 400.124 535.484 401.654 541.97C403.555 549.988 428.202 536.661 432.947 539.323C437.693 541.985 474.676 541.985 481.322 541.985C487.969 541.985 492.676 559.368 500.266 562.108C507.857 564.848 504.987 582.122 505.918 594.165C506.849 606.207 518.241 618.188 519.173 628.868C520.104 639.549 532.44 634.224 540.03 636.886C547.621 639.549 558.987 643.573 559.919 654.269C560.85 664.965 570.354 656.931 571.311 648.913C572.267 640.895 581.759 630.199 595.983 622.228C602.361 618.606 606.635 618.606 609.837 620.339C612.49 610.742 615.208 602.647 617.109 601.502C622.071 598.499 631.32 588.515 632.047 578.515C632.774 568.516 651.923 568.501 664.705 577.494C677.488 586.487 685.308 586.503 686.022 572.525C686.737 558.548 705.158 554.523 710.898 558.594C716.639 562.665 734.308 576.596 742.791 571.581C751.275 566.566 793.934 572.587 804.574 576.596C815.213 580.605 818.083 570.606 827.294 585.605C835.025 598.204 838.775 586.874 847.399 596.595C847.399 592.756 846.812 587.927 846.825 582.85C846.825 573.113 857.477 564.863 859.582 557.371C861.687 549.879 850.027 527.358 850.04 519.85C850.053 512.343 850.04 494.357 844.733 490.611C839.426 486.865 854.862 477.098 858.536 477.377C866.445 477.903 877.672 466.278 881.142 471.185C884.612 476.092 891.462 477.377 898.364 477.377C905.265 477.377 902.293 466.263 898.364 461.449C894.434 456.635 910.7 411.576 913.175 396.437C915.649 381.299 921.53 395.044 929.376 396.437C937.222 397.831 946.598 395.756 951.51 399.224C956.421 402.691 970.645 395.044 974.141 387.444C977.636 379.844 970.211 377.754 970.722 360.434C971.232 343.113 978.605 334.862 986.464 334.862C994.322 334.862 996.797 324.461 996.81 316.133C996.81 308.657 1003.19 303.889 1005.17 294.37C1002.51 290.729 1000.67 286.313 999.833 281.553Z" fill="#F8F8F8" stroke="#E4E6E7" stroke-width="4"/>
</svg>
