<svg width="60" height="60" viewBox="0 0 60 60" fill="none" xmlns="http://www.w3.org/2000/svg">
<path d="M48.268 57.843L47.199 55.986C46.493 54.758 45.448 53.77 44.181 53.137C40.975 51.534 34.598 48.346 31.382 46.737C30.563 46.326 30 45.479 30 44.5C30 43.119 31.119 42 32.5 42C32.902 42 33.28 42.098 33.616 42.263C35 42.944 39.172 44.943 39.172 44.943C39.697 45.188 40.217 44.596 39.906 44.108L32.303 32.061C32.111 31.753 32 31.39 32 31C32 29.896 32.896 29 34 29C34.717 29 35.338 29.38 35.697 29.942C37.005 31.988 41.013 38.071 41.013 38.071L47.251 35.361C47.745 35.146 48.276 35.005 48.814 35C50.546 35 52.039 36.066 52.625 37.662L58.528 53.748" stroke="#2B2B2B" stroke-width="2" stroke-miterlimit="10"/>
<path d="M53.3906 32.3398C54.7276 33.2628 55.7696 34.6208 56.3796 36.2848L58.4106 41.8198" stroke="#2B2B2B" stroke-width="2" stroke-miterlimit="10"/>
<path d="M49 31C49.641 31 50.26 31.073 50.85 31.213" stroke="#2B2B2B" stroke-width="2" stroke-miterlimit="10"/>
<path d="M36.6779 49.3848L19.8469 52.9348C18.1929 53.2838 16.5669 52.2308 16.2159 50.5838L8.06695 12.3168C7.71695 10.6708 8.77395 9.05181 10.4289 8.70381L37.1549 3.06681C38.8089 2.71781 40.4349 3.77081 40.7859 5.41781L47.1709 35.4038" stroke="#2B2B2B" stroke-width="2" stroke-miterlimit="10"/>
<path d="M24.8847 9.74187L12.1797 12.4219L13.7747 19.9219L38.6657 14.6719L37.0687 7.17188L31.1307 8.42488" stroke="#2B2B2B" stroke-width="2" stroke-miterlimit="10"/>
<path d="M28.8532 8.90625L27.1602 9.26325" stroke="#2B2B2B" stroke-width="2" stroke-miterlimit="10"/>
<path d="M30.4314 45.8906L19.7854 48.1356L14.6484 24.0156L39.5394 18.7656L43.4284 37.0316" stroke="#2B2B2B" stroke-width="2" stroke-miterlimit="10"/>
<path d="M37.2305 27.8316L41.2865 26.9766" stroke="#2B2B2B" stroke-width="2" stroke-miterlimit="10"/>
<path d="M16.3984 32.2253L29.7814 29.4023" stroke="#2B2B2B" stroke-width="2" stroke-miterlimit="10"/>
<path d="M18.0859 40.1671L31.7379 37.2871" stroke="#2B2B2B" stroke-width="2" stroke-miterlimit="10"/>
<path d="M27.2852 42.8326L22.9062 22.2676" stroke="#2B2B2B" stroke-width="2" stroke-miterlimit="10"/>
<path d="M32.5941 25.8198L31.4531 20.4648" stroke="#2B2B2B" stroke-width="2" stroke-miterlimit="10"/>
<path d="M19 14H17V16H19V14Z" fill="#2B2B2B"/>
<path d="M23 13H21V15H23V13Z" fill="#2B2B2B"/>
<path d="M27 12H25V14H27V12Z" fill="#2B2B2B"/>
<path d="M6 42V46" stroke="#2B2B2B" stroke-width="2" stroke-miterlimit="10"/>
<path d="M6 50V54" stroke="#2B2B2B" stroke-width="2" stroke-miterlimit="10"/>
<path d="M12 48H8" stroke="#2B2B2B" stroke-width="2" stroke-miterlimit="10"/>
<path d="M4 48H0" stroke="#2B2B2B" stroke-width="2" stroke-miterlimit="10"/>
<path d="M52 2V7" stroke="#2B2B2B" stroke-width="2" stroke-miterlimit="10"/>
<path d="M52 11V16" stroke="#2B2B2B" stroke-width="2" stroke-miterlimit="10"/>
<path d="M59 9H54" stroke="#2B2B2B" stroke-width="2" stroke-miterlimit="10"/>
<path d="M50 9H45" stroke="#2B2B2B" stroke-width="2" stroke-miterlimit="10"/>
</svg>
