<svg width="120" height="40" viewBox="0 0 120 40" fill="none" xmlns="http://www.w3.org/2000/svg">
<path d="M30.999 19.5029C30.999 17.1794 32.9076 16.1006 32.9906 16.0176C31.9118 14.4409 30.2521 14.275 29.6712 14.192C28.2605 14.026 26.9328 15.0218 26.1859 15.0218C25.4391 15.0218 24.3603 14.192 23.1986 14.192C21.7049 14.192 20.2941 15.1048 19.4643 16.4325C17.8876 19.171 19.0494 23.3201 20.6261 25.5607C21.3729 26.6395 22.2857 27.8842 23.4475 27.8842C24.6093 27.8012 25.0242 27.1374 26.4349 27.1374C27.8456 27.1374 28.1775 27.8842 29.4223 27.8842C30.667 27.8842 31.4139 26.8054 32.1607 25.6437C33.0736 24.3989 33.4055 23.1542 33.4055 23.0712C33.4055 23.1542 30.999 22.2414 30.999 19.5029Z" fill="#757575"/>
<path d="M28.7584 12.7814C29.3393 12.0345 29.8372 10.9557 29.6712 9.87695C28.7584 9.87695 27.6796 10.4578 27.0157 11.2877C26.4349 11.8685 25.937 13.0303 26.0199 14.0261C27.0157 14.1091 28.0945 13.5282 28.7584 12.7814Z" fill="#757575"/>
<path d="M45.5207 25.144H41.6205L40.7076 27.9655H39.048L42.7822 17.6755H44.4419L48.1761 27.9655H46.5165L45.5207 25.144ZM42.0354 23.8993H45.1887L43.612 19.3352H43.5291L42.0354 23.8993Z" fill="#757575"/>
<path d="M56.2261 24.149C56.2261 26.4725 54.9813 27.9662 53.0727 27.9662C51.9939 27.9662 51.1641 27.4683 50.7492 26.6385V30.3728H49.1725V20.4148H50.6662V21.6595C51.0811 20.8297 51.9939 20.3318 53.0727 20.3318C54.9813 20.3318 56.2261 21.8255 56.2261 24.149ZM54.6494 24.149C54.6494 22.6553 53.9025 21.6595 52.6578 21.6595C51.496 21.6595 50.6662 22.6553 50.6662 24.149C50.6662 25.6427 51.496 26.6385 52.6578 26.6385C53.8195 26.7215 54.6494 25.7257 54.6494 24.149Z" fill="#757575"/>
<path d="M64.5239 24.149C64.5239 26.4725 63.2792 27.9662 61.3705 27.9662C60.2918 27.9662 59.4619 27.4683 59.047 26.6385V30.3728H57.4703V20.4148H58.964V21.6595C59.3789 20.8297 60.2918 20.3318 61.3705 20.3318C63.1962 20.3318 64.5239 21.8255 64.5239 24.149ZM62.8642 24.149C62.8642 22.6553 62.1174 21.6595 60.8726 21.6595C59.7109 21.6595 58.8811 22.6553 58.8811 24.149C58.8811 25.6427 59.7109 26.6385 60.8726 26.6385C62.1174 26.7215 62.8642 25.7257 62.8642 24.149Z" fill="#757575"/>
<path d="M69.918 25.062C70.001 26.0578 70.9968 26.7216 72.4075 26.7216C73.7353 26.7216 74.6481 26.0578 74.6481 25.145C74.6481 24.3151 74.0672 23.9002 72.7395 23.5683L71.4117 23.2363C69.5031 22.7384 68.6733 21.9086 68.6733 20.4979C68.6733 18.7552 70.25 17.5105 72.4075 17.5105C74.5651 17.5105 76.0588 18.7552 76.1418 20.4979H74.5651C74.4821 19.5021 73.6523 18.8382 72.4075 18.8382C71.1628 18.8382 70.333 19.5021 70.333 20.4149C70.333 21.1618 70.9138 21.5767 72.2416 21.9086L73.4033 22.1576C75.4779 22.6555 76.3907 23.4853 76.3907 24.979C76.3907 26.8876 74.8141 28.1323 72.4075 28.1323C70.084 28.1323 68.5903 26.9706 68.5073 25.062H69.918Z" fill="#757575"/>
<path d="M79.6273 18.6724V20.415H81.038V21.6598H79.6273V25.8089C79.6273 26.4728 79.8762 26.7217 80.5401 26.7217C80.7061 26.7217 80.955 26.7217 81.038 26.7217V27.8835C80.872 27.9665 80.5401 27.9665 80.2082 27.9665C78.7145 27.9665 78.1336 27.3856 78.1336 25.9749V21.6598H77.0548V20.415H78.1336V18.6724H79.6273Z" fill="#757575"/>
<path d="M81.8693 24.149C81.8693 21.8255 83.28 20.3318 85.4375 20.3318C87.5951 20.3318 89.0058 21.8255 89.0058 24.149C89.0058 26.5555 87.5951 27.9662 85.4375 27.9662C83.28 28.0492 81.8693 26.5555 81.8693 24.149ZM87.4291 24.149C87.4291 22.4894 86.6823 21.5765 85.4375 21.5765C84.1928 21.5765 83.4459 22.5723 83.4459 24.149C83.4459 25.8087 84.1928 26.7215 85.4375 26.7215C86.6823 26.7215 87.4291 25.8087 87.4291 24.149Z" fill="#757575"/>
<path d="M90.249 20.4148H91.7427V21.6595C91.9917 20.8297 92.6555 20.3318 93.5684 20.3318C93.8173 20.3318 93.9833 20.3318 94.0662 20.4148V21.8255C93.9833 21.7425 93.6513 21.7425 93.4024 21.7425C92.4066 21.7425 91.8257 22.4064 91.8257 23.4851V27.9662H90.249V20.4148Z" fill="#757575"/>
<path d="M101.203 25.7257C101.037 27.0534 99.626 28.0492 97.9663 28.0492C95.8088 28.0492 94.3981 26.5555 94.3981 24.232C94.3981 21.9085 95.7258 20.3318 97.8834 20.3318C99.9579 20.3318 101.286 21.7425 101.286 24.066V24.5639H95.9747V24.6469C95.9747 25.8917 96.8046 26.8045 97.9663 26.8045C98.7962 26.8045 99.46 26.3896 99.709 25.7257H101.203ZM95.9747 23.4851H99.709C99.709 22.3234 98.9621 21.5765 97.8834 21.5765C96.8876 21.5765 96.0577 22.3234 95.9747 23.4851Z" fill="#757575"/>
<path d="M41.8697 9.87695C43.3634 9.87695 44.1932 10.7898 44.1932 12.3664C44.1932 13.9431 43.3634 14.8559 41.8697 14.8559H40.0441V9.87695H41.8697ZM40.7909 14.1091H41.7037C42.6995 14.1091 43.3634 13.4452 43.3634 12.3664C43.3634 11.2877 42.7825 10.6238 41.7037 10.6238H40.7909V14.1091Z" fill="#757575"/>
<path d="M45.0231 12.9456C45.0231 11.7009 45.6869 11.037 46.7657 11.037C47.8445 11.037 48.5913 11.7838 48.5913 12.9456C48.5913 14.1903 47.9275 14.8542 46.8487 14.8542C45.6869 14.8542 45.0231 14.1903 45.0231 12.9456ZM47.7615 12.9456C47.7615 12.1158 47.4296 11.7009 46.7657 11.7009C46.1019 11.7009 45.7699 12.1988 45.7699 12.9456C45.7699 13.7754 46.1019 14.2733 46.7657 14.2733C47.4296 14.2733 47.7615 13.7754 47.7615 12.9456Z" fill="#757575"/>
<path d="M53.2387 14.8558H52.4918L51.745 12.1174H51.662L50.9151 14.8558H50.1683L49.1725 11.1216H49.9193L50.5832 13.943H50.6662L51.413 11.1216H52.1599L52.9067 13.943H52.9897L53.6536 11.1216H54.4004L53.2387 14.8558Z" fill="#757575"/>
<path d="M55.1485 11.12H55.8954V11.7009H55.9784C56.0613 11.2859 56.4763 11.037 56.9742 11.037C57.804 11.037 58.3019 11.5349 58.3019 12.4477V14.8542H57.555V12.6137C57.555 12.0328 57.3061 11.7009 56.7252 11.7009C56.1443 11.7009 55.8124 12.0328 55.8124 12.6137V14.7712H55.0656V11.12H55.1485Z" fill="#757575"/>
<path d="M59.4614 9.62708H60.2083V14.855H59.4614V9.62708Z" fill="#757575"/>
<path d="M61.2047 12.9456C61.2047 11.7009 61.8686 11.037 62.9474 11.037C64.0261 11.037 64.69 11.7838 64.69 12.9456C64.69 14.1903 64.0261 14.8542 62.9474 14.8542C61.9516 14.8542 61.2047 14.1903 61.2047 12.9456ZM64.0261 12.9456C64.0261 12.1158 63.6942 11.7009 63.0303 11.7009C62.3665 11.7009 62.0345 12.1988 62.0345 12.9456C62.0345 13.7754 62.3665 14.2733 63.0303 14.2733C63.6112 14.2733 64.0261 13.7754 64.0261 12.9456Z" fill="#757575"/>
<path d="M65.52 13.7754C65.52 13.1116 66.0179 12.6967 66.9307 12.6967L67.9265 12.6137V12.2817C67.9265 11.8668 67.6776 11.7009 67.1797 11.7009C66.7648 11.7009 66.5158 11.8668 66.4328 12.1158H65.686C65.769 11.4519 66.3499 11.037 67.1797 11.037C68.0925 11.037 68.6734 11.5349 68.6734 12.2817V14.8542H67.9265V14.2733H67.8436C67.5946 14.6882 67.1797 14.8542 66.6818 14.8542C66.1009 14.8542 65.52 14.4393 65.52 13.7754ZM67.9265 13.4435V13.1116L67.0137 13.1946C66.5158 13.1946 66.2669 13.4435 66.2669 13.6924C66.2669 14.0244 66.5988 14.1903 66.9307 14.1903C67.5116 14.2733 67.9265 13.9414 67.9265 13.4435Z" fill="#757575"/>
<path d="M69.6691 12.9464C69.6691 11.7846 70.25 11.0378 71.2457 11.0378C71.7436 11.0378 72.1586 11.2867 72.4075 11.7017H72.4905V9.62708H73.2373V14.855H72.4905V14.1912H72.4075C72.1586 14.6061 71.7436 14.855 71.2457 14.855C70.25 14.855 69.6691 14.1082 69.6691 12.9464ZM70.4159 12.9464C70.4159 13.7762 70.8308 14.1912 71.4117 14.1912C71.9926 14.1912 72.4075 13.6933 72.4075 12.9464C72.4075 12.1996 71.9926 11.7017 71.4117 11.7017C70.7478 11.7017 70.4159 12.1996 70.4159 12.9464Z" fill="#757575"/>
<path d="M76.2267 12.9456C76.2267 11.7009 76.8905 11.037 77.9693 11.037C79.0481 11.037 79.712 11.7838 79.712 12.9456C79.712 14.1903 79.0481 14.8542 77.9693 14.8542C76.8905 14.8542 76.2267 14.1903 76.2267 12.9456ZM78.9651 12.9456C78.9651 12.1158 78.6332 11.7009 77.9693 11.7009C77.3055 11.7009 76.9735 12.1988 76.9735 12.9456C76.9735 13.7754 77.3055 14.2733 77.9693 14.2733C78.6332 14.2733 78.9651 13.7754 78.9651 12.9456Z" fill="#757575"/>
<path d="M80.7057 11.12H81.4525V11.7009H81.5355C81.6185 11.2859 82.0334 11.037 82.6143 11.037C83.4441 11.037 83.942 11.5349 83.942 12.4477V14.8542H83.1952V12.6137C83.1952 12.0328 82.9462 11.7009 82.3654 11.7009C81.7845 11.7009 81.4525 12.0328 81.4525 12.6137V14.7712H80.7057V11.12Z" fill="#757575"/>
<path d="M88.0103 10.124V11.0368H88.8402V11.6177H88.0103V13.5263C88.0103 13.9413 88.1763 14.1072 88.5082 14.1072C88.5912 14.1072 88.6742 14.1072 88.7572 14.1072V14.6881C88.6742 14.6881 88.5082 14.6881 88.3423 14.6881C87.5124 14.6881 87.1805 14.4391 87.1805 13.6923V11.7007H86.5996V11.1198H87.1805V10.124H88.0103Z" fill="#757575"/>
<path d="M89.834 9.62708H90.5808V11.7017H90.6638C90.8298 11.2867 91.2447 11.0378 91.8256 11.0378C92.6554 11.0378 93.1533 11.5357 93.1533 12.4485V14.855H92.4065V12.6145C92.4065 12.0336 92.1575 11.7017 91.5766 11.7017C90.9957 11.7017 90.6638 12.1166 90.6638 12.6145V14.772H89.917V9.62708H89.834Z" fill="#757575"/>
<path d="M97.3857 13.7755C97.2197 14.4394 96.6389 14.8543 95.726 14.8543C94.6473 14.8543 93.9834 14.1075 93.9834 12.9457C93.9834 11.7839 94.6473 10.9541 95.726 10.9541C96.8048 10.9541 97.3857 11.701 97.3857 12.8627V13.1117H94.7302C94.7302 13.7755 95.1452 14.1904 95.726 14.1904C96.141 14.1904 96.4729 14.0245 96.6389 13.7755H97.3857ZM94.8132 12.6138H96.7218C96.7218 12.0329 96.3069 11.618 95.809 11.618C95.2281 11.618 94.8132 12.0329 94.8132 12.6138Z" fill="#757575"/>
<rect x="0.414916" y="0.414916" width="119.17" height="39.1702" rx="2.58508" stroke="#757575" stroke-width="0.829832"/>
</svg>
