<svg width="120" height="40" viewBox="0 0 120 40" fill="none" xmlns="http://www.w3.org/2000/svg">
<path d="M29.3881 9.76978C33.5801 9.76978 35.1327 11.3257 35.0551 15.5267V24.4734C35.0551 28.6744 33.5025 30.2303 29.3105 30.2303H20.3831C16.1911 30.2303 14.6385 28.6744 14.6385 24.4734V15.5267C14.6385 11.3257 16.1911 9.76978 20.3831 9.76978H29.3881ZM18.7529 20.0382V21.1273H17.5108V20.0382H16.9674V22.7611H17.5108V21.6719H18.6753V22.7611H19.2187V20.0382H18.7529ZM21.7805 21.5941C21.7805 22.0609 21.5476 22.2943 21.1594 22.2943C20.7713 22.2943 20.5384 22.0609 20.5384 21.5941V20.0382H19.995V21.5941C19.995 22.3721 20.3831 22.7611 21.1594 22.7611C21.8581 22.7611 22.3239 22.2943 22.3239 21.5163V20.0382H21.7805V21.5941ZM28.0677 21.9053L27.4466 20.0382H26.9809L26.3598 21.9053L25.8164 20.0382H25.273L26.2046 22.7611H26.6703L27.2914 20.9717L27.9124 22.7611H28.3782L29.3097 20.0382H28.7663L28.0677 21.9053ZM30.1644 21.5941H31.1736V21.1273H30.1644V20.5827H31.5618V20.0382H29.621V22.6833H31.6394V22.2165H30.1644V21.5941ZM32.3373 22.6833H32.8807V20.0382H32.3373V22.6833ZM23.4107 22.1387H24.6527L24.8856 22.6833H25.429L24.2646 20.0382H23.7988L22.6344 22.6833H23.1778L23.4107 22.1387ZM23.5652 21.6719H24.4191L24.0309 20.7383L23.5652 21.6719ZM21.4699 13.1928C21.4699 15.06 23.0225 16.6159 24.8856 16.6159C26.7487 16.6159 28.3013 15.06 28.3013 13.1928H27.8356C27.8356 14.8266 26.5159 16.1491 24.8856 16.1491C23.2554 16.1491 21.9357 14.8266 21.9357 13.1928H21.4699Z" fill="#757575"/>
<path d="M48.1581 27.5781H49.5958L46.4363 18.8081H44.9684L41.8088 27.5781H43.2217L44.0221 25.2077H47.3578L48.1581 27.5781ZM45.6717 20.266H45.7082L47.0123 24.1131H44.3683L45.6725 20.266H45.6717Z" fill="#757575"/>
<path d="M53.8228 20.9102C52.9068 20.9102 52.094 21.3598 51.7245 22.0709H51.6942V20.9771H50.4265V29.7354H51.7423V26.496H51.7664C52.1608 27.2257 52.9068 27.645 53.8531 27.645C55.5089 27.645 56.6066 26.3201 56.6066 24.278C56.6066 22.2296 55.5027 20.9109 53.8228 20.9109V20.9102ZM53.489 26.5263C52.4394 26.5263 51.7361 25.627 51.7299 24.2772C51.7361 22.9336 52.4457 22.0281 53.489 22.0281C54.5564 22.0281 55.2597 22.9158 55.2597 24.2772C55.2597 25.6449 54.5564 26.5263 53.489 26.5263Z" fill="#757575"/>
<path d="M61.0524 20.9102C60.1364 20.9102 59.3236 21.3598 58.9541 22.0709H58.9238V20.9771H57.6561V29.7354H58.9719V26.496H58.996C59.3904 27.2257 60.1364 27.645 61.0827 27.645C62.7385 27.645 63.8362 26.3201 63.8362 24.278C63.8362 22.2296 62.7323 20.9109 61.0524 20.9109V20.9102ZM60.7186 26.5263C59.6691 26.5263 58.9657 25.627 58.9595 24.2772C58.9657 22.9336 59.6753 22.0281 60.7186 22.0281C61.786 22.0281 62.4893 22.9158 62.4893 24.2772C62.4893 25.6449 61.786 26.5263 60.7186 26.5263Z" fill="#757575"/>
<path d="M75.419 23.931V23.0379H71.8162V24.138H74.0783V24.2897C74.0604 25.6208 73.0776 26.5326 71.6586 26.5326C69.9911 26.5326 68.954 25.238 68.954 23.1414C68.954 21.0813 69.9608 19.8529 71.6345 19.8529C72.7749 19.8529 73.6296 20.4792 73.9572 21.5668H75.3522C75.0487 19.8164 73.5753 18.6619 71.6283 18.6619C69.1356 18.6619 67.5652 20.3882 67.5652 23.1531C67.5652 25.967 69.1418 27.7236 71.6469 27.7236C74.0185 27.7236 75.419 26.3077 75.419 23.931Z" fill="#757575"/>
<path d="M78.8767 26.5932C78.1182 26.5932 77.6276 26.2284 77.6276 25.6636C77.6276 25.0801 78.0949 24.7456 78.9923 24.6911L80.5938 24.5814V25.098C80.5938 25.967 79.854 26.5932 78.8774 26.5932H78.8767ZM78.5242 27.645C79.4216 27.645 80.2406 27.1954 80.6047 26.4781H80.635V27.5781H81.8902V23.0504C81.8902 21.7434 80.8531 20.8931 79.2462 20.8931C77.7666 20.8931 76.6627 21.7558 76.6262 22.9228H77.8574C77.9723 22.3518 78.4939 21.9807 79.2097 21.9807C80.0892 21.9807 80.5923 22.3938 80.5923 23.1476V23.658L78.8153 23.7614C77.1898 23.8649 76.2986 24.5332 76.2986 25.6885C76.2986 26.8679 77.2084 27.6458 78.5242 27.6458V27.645Z" fill="#757575"/>
<path d="M83.2673 27.5782H84.5831V18.413H83.2673V27.5782Z" fill="#757575"/>
<path d="M86.0452 27.5782H87.361V18.413H86.0452V27.5782Z" fill="#757575"/>
<path d="M91.5095 21.9684C92.4682 21.9684 93.1172 22.6491 93.1475 23.676H89.8055C89.8785 22.6607 90.564 21.9684 91.5095 21.9684ZM93.1413 25.645C92.9596 26.2223 92.3588 26.5871 91.5949 26.5871C90.515 26.5871 89.7993 25.8333 89.7993 24.6905V24.6111H94.4633V24.149C94.4633 22.1496 93.3229 20.8909 91.5157 20.8909C89.672 20.8909 88.4711 22.2344 88.4711 24.3007C88.4711 26.367 89.6604 27.6561 91.5708 27.6561C93.0504 27.6561 94.2087 26.8291 94.3965 25.6442H93.1413V25.645Z" fill="#757575"/>
<path d="M95.5236 27.5782H96.8402V23.6393C96.8402 22.7096 97.3859 22.1075 98.253 22.1075C98.4471 22.1075 98.7196 22.1503 98.829 22.1923V20.9584C98.7258 20.9281 98.5379 20.9094 98.3927 20.9094C97.6165 20.9094 97.0094 21.3529 96.8037 22.0888H96.7788V20.9763H95.5236V27.5766V27.5782Z" fill="#757575"/>
<path d="M100.358 29.979C101.704 29.979 102.329 29.4686 102.894 27.8824L105.361 20.9779H103.979L102.287 26.3754H102.256L100.565 20.9779H99.1511L101.541 27.5969L101.437 27.9376C101.213 28.6362 100.868 28.9038 100.243 28.9038C100.128 28.9038 99.9212 28.8976 99.8242 28.8735V29.9432C99.9274 29.9611 100.249 29.9798 100.358 29.9798V29.979Z" fill="#757575"/>
<path d="M41.8083 11.3257H44.6806L44.603 12.0259H42.6623V13.3484H44.5254V13.9708H42.6623V15.4489H44.6806L44.603 16.1491H41.8083V11.3257Z" fill="#757575"/>
<path d="M46.6228 13.7374L45.1478 11.3257H46.0794L47.0885 13.115L48.1754 11.3257H49.1069L47.632 13.6596L49.2622 16.1491H48.3306L47.1662 14.2042L46.0017 16.1491H44.9926L46.6228 13.7374Z" fill="#757575"/>
<path d="M49.8049 11.3257H51.1246C51.7457 11.3257 52.2114 11.4813 52.522 11.7147C52.8325 11.9481 52.9877 12.337 52.9877 12.8038C52.9877 13.115 52.9101 13.4262 52.7548 13.6596C52.5996 13.893 52.3667 14.0486 52.1338 14.2042C51.9009 14.3598 51.5904 14.3598 51.2023 14.3598C51.047 14.3598 50.8141 14.3598 50.5812 14.282V16.1491H49.7273V11.3257H49.8049ZM51.9009 13.504C52.0562 13.3484 52.1338 13.115 52.1338 12.8038C52.1338 12.4926 52.0562 12.2592 51.8233 12.1814C51.668 12.0259 51.3575 11.9481 51.047 11.9481H50.5812V13.6596C50.8141 13.6596 50.9694 13.7374 51.047 13.7374C51.5128 13.8152 51.7457 13.7374 51.9009 13.504Z" fill="#757575"/>
<path d="M53.8406 11.3256H54.6945V15.4488H56.7129L56.6352 16.2268H53.8406V11.3256Z" fill="#757575"/>
<path d="M57.9558 15.9934C57.5677 15.76 57.3348 15.5266 57.1795 15.1376C57.0243 14.7486 56.869 14.3596 56.869 13.8151C56.869 13.2705 56.9466 12.8815 57.1795 12.4925C57.4124 12.1035 57.6453 11.7923 58.0335 11.6367C58.4216 11.4034 58.8874 11.3256 59.3532 11.3256C59.8189 11.3256 60.2847 11.4034 60.5952 11.6367C60.9834 11.8701 61.2163 12.1035 61.3715 12.4925C61.5268 12.8815 61.682 13.2705 61.682 13.7373C61.682 14.2818 61.6044 14.7486 61.3715 15.1376C61.1386 15.5266 60.9057 15.8378 60.5176 15.9934C60.1295 16.2268 59.7413 16.3046 59.1979 16.3046C58.8098 16.3046 58.344 16.2268 57.9558 15.9934ZM60.2071 15.371C60.44 15.2154 60.5952 14.982 60.7505 14.7486C60.8281 14.4374 60.9057 14.1262 60.9057 13.8151C60.9057 13.5039 60.8281 13.1149 60.7505 12.8815C60.6729 12.5703 60.5176 12.4147 60.2847 12.2591C60.0518 12.1035 59.7413 12.0257 59.4308 12.0257C59.1203 12.0257 58.8098 12.1035 58.5769 12.2591C58.344 12.4147 58.1887 12.6481 58.0335 12.9593C57.8782 13.2705 57.8782 13.5039 57.8782 13.8929C57.8782 14.2818 57.9558 14.593 58.0335 14.8264C58.1111 15.1376 58.344 15.2932 58.5769 15.4488C58.8098 15.6044 59.1203 15.6822 59.4308 15.6822C59.6637 15.6044 59.8966 15.5266 60.2071 15.371Z" fill="#757575"/>
<path d="M62.6912 11.3256H64.2438C64.7872 11.3256 65.2529 11.4034 65.4858 11.6367C65.7963 11.8701 65.9516 12.1813 65.9516 12.5703C65.9516 12.8037 65.874 13.0371 65.7963 13.2705C65.7187 13.5039 65.5635 13.6595 65.4082 13.7373C65.2529 13.8929 65.0977 13.9707 64.9424 14.0484L66.4174 16.2268H65.4082L64.1661 14.2818H63.5451V16.2268H62.6912V11.3256ZM64.0109 13.6595C64.2437 13.6595 64.399 13.5817 64.5543 13.5039C64.7095 13.4261 64.8648 13.3483 64.9424 13.1927C65.02 13.0371 65.0977 12.8815 65.0977 12.7259C65.0977 12.4925 65.02 12.3369 64.8648 12.1813C64.7095 12.1035 64.4766 12.0257 64.1661 12.0257H63.5451V13.6595H64.0109Z" fill="#757575"/>
<path d="M67.0383 11.3256H69.9106L69.833 12.0257H67.8923V13.3483H69.7554V13.9707H67.8923V15.4488H69.9106L69.833 16.2268H67.0383V11.3256Z" fill="#757575"/>
<path d="M73.0168 11.3256H73.8708V16.2268H73.0168V11.3256Z" fill="#757575"/>
<path d="M76.0442 12.1036H74.5692L74.6468 11.4034H78.4507L78.3731 12.1036H76.9757V16.3046H76.0442V12.1036Z" fill="#757575"/>
<path d="M82.0978 15.9935C81.7097 15.7601 81.4768 15.5267 81.3215 15.1377C81.1662 14.7487 81.011 14.3598 81.011 13.8152C81.011 13.2706 81.0886 12.8816 81.3215 12.4926C81.5544 12.1037 81.7873 11.7925 82.1754 11.6369C82.5636 11.4035 83.0293 11.3257 83.4951 11.3257C83.9609 11.3257 84.4267 11.4035 84.7372 11.6369C85.1253 11.8703 85.3582 12.1037 85.5135 12.4926C85.6687 12.8816 85.824 13.2706 85.824 13.7374C85.824 14.282 85.7464 14.7487 85.5135 15.1377C85.2806 15.5267 85.0477 15.8379 84.6596 15.9935C84.2714 16.2269 83.8833 16.3047 83.3399 16.3047C82.8741 16.3047 82.4083 16.2269 82.0978 15.9935ZM84.2714 15.3711C84.5043 15.2155 84.6596 14.9821 84.8148 14.7487C84.8925 14.4376 84.9701 14.1264 84.9701 13.8152C84.9701 13.504 84.8925 13.115 84.8148 12.8816C84.7372 12.5704 84.5819 12.4148 84.349 12.2592C84.1162 12.1037 83.8056 12.0259 83.4951 12.0259C83.1846 12.0259 82.8741 12.1037 82.6412 12.2592C82.4083 12.4148 82.2531 12.6482 82.0978 12.9594C81.9425 13.2706 81.9425 13.504 81.9425 13.893C81.9425 14.282 82.0202 14.5931 82.0978 14.8265C82.1754 15.1377 82.4083 15.2933 82.6412 15.4489C82.8741 15.6045 83.1846 15.6823 83.4951 15.6823C83.728 15.6045 84.0385 15.5267 84.2714 15.3711Z" fill="#757575"/>
<path d="M86.7561 11.3256H87.6877L90.0942 15.0598C90.0942 14.6708 90.0942 14.3596 90.0942 14.0484V11.3256H90.8705V16.2268H89.9389L87.5324 12.4147C87.5324 12.8815 87.5324 13.2705 87.5324 13.5817V16.2268H86.7561V11.3256Z" fill="#757575"/>
<rect x="0.414916" y="0.414916" width="119.17" height="39.1702" rx="2.58508" stroke="#757575" stroke-width="0.829832"/>
</svg>
