<svg width="120" height="40" viewBox="0 0 120 40" fill="none" xmlns="http://www.w3.org/2000/svg">
<path d="M41.2115 11.7076C41.2115 12.3582 41.0481 12.9275 40.6396 13.3341C40.1494 13.822 39.5775 14.066 38.8422 14.066C38.1069 14.066 37.535 13.822 37.0449 13.3341C36.5547 12.8461 36.3096 12.2769 36.3096 11.545C36.3096 10.813 36.5547 10.2438 37.0449 9.75584C37.535 9.2679 38.1069 9.02393 38.8422 9.02393C39.169 9.02393 39.4958 9.10525 39.8226 9.2679C40.1494 9.43054 40.3945 9.59319 40.5579 9.83716L40.1494 10.2438C39.8226 9.83716 39.4141 9.67451 38.8422 9.67451C38.352 9.67451 37.8618 9.83716 37.535 10.2438C37.1266 10.5691 36.9632 11.057 36.9632 11.6263C36.9632 12.1955 37.1266 12.6835 37.535 13.0088C37.9435 13.3341 38.352 13.578 38.8422 13.578C39.4141 13.578 39.8226 13.4154 40.2311 13.0088C40.4762 12.7648 40.6396 12.4395 40.6396 12.0329H38.8422V11.301H41.2107C41.2107 11.4636 41.2107 11.545 41.2107 11.7076H41.2115Z" fill="#757575"/>
<path d="M45.0504 9.67525H42.8452V11.2204H44.8877V11.7897H42.8452V13.3348H45.0504V13.9041H42.1917V9.02539H45.0504V9.67598V9.67525Z" fill="#757575"/>
<path d="M47.6634 13.9033H47.0098V9.67525H45.621V9.02466H49.0516V9.67525H47.6627V13.9033H47.6634Z" fill="#757575"/>
<path d="M51.5048 13.9033V9.02466H52.1583V13.9033H51.5048Z" fill="#757575"/>
<path d="M54.9338 13.9033H54.2802V9.67525H52.8914V9.02466H56.2403V9.67525H54.8514V13.9033H54.9331H54.9338Z" fill="#757575"/>
<path d="M62.6111 13.3341C62.1209 13.822 61.5491 14.066 60.8138 14.066C60.0785 14.066 59.5066 13.822 59.0164 13.3341C58.5262 12.8461 58.2811 12.2769 58.2811 11.545C58.2811 10.813 58.5262 10.2438 59.0164 9.75584C59.5066 9.2679 60.0785 9.02393 60.8138 9.02393C61.5491 9.02393 62.1209 9.2679 62.6111 9.75584C63.1013 10.2438 63.3464 10.813 63.3464 11.545C63.3464 12.1955 63.1013 12.8461 62.6111 13.3341ZM59.5073 12.9275C59.8341 13.2527 60.3243 13.4967 60.8145 13.4967C61.3047 13.4967 61.7949 13.3341 62.1217 12.9275C62.4485 12.6022 62.6936 12.1142 62.6936 11.545C62.6936 10.9757 62.5302 10.4877 62.2034 10.0811C61.8766 9.75584 61.3864 9.51187 60.8962 9.51187C60.406 9.51187 59.9158 9.67451 59.589 10.0811C59.2622 10.4064 59.0171 10.8944 59.0171 11.4636C59.0171 12.0329 59.1805 12.5208 59.5073 12.9275Z" fill="#757575"/>
<path d="M64.2465 13.9033V9.02466H64.9817L67.3503 12.8461V9.02466H68.0039V13.9033H67.3503L64.8184 9.91922V13.9033H64.2465Z" fill="#757575"/>
<path d="M58.2032 21.0583C56.2424 21.0583 54.6909 22.5221 54.6909 24.5545C54.6909 26.5062 56.2432 28.0507 58.2032 28.0507C60.1632 28.0507 61.7155 26.5868 61.7155 24.5545C61.6338 22.5214 60.0815 21.0583 58.2032 21.0583ZM58.2032 26.5868C57.1411 26.5868 56.2424 25.6923 56.2424 24.4732C56.2424 23.254 57.1411 22.3595 58.2032 22.3595C59.2653 22.3595 60.164 23.1727 60.164 24.4732C60.164 25.7736 59.2653 26.5868 58.2032 26.5868ZM50.525 21.0583C48.5643 21.0583 47.0127 22.5221 47.0127 24.5545C47.0127 26.5062 48.565 28.0507 50.525 28.0507C52.4851 28.0507 54.0373 26.5868 54.0373 24.5545C54.0373 22.5214 52.4851 21.0583 50.525 21.0583ZM50.525 26.5868C49.4629 26.5868 48.5643 25.6923 48.5643 24.4732C48.5643 23.254 49.4629 22.3595 50.525 22.3595C51.5871 22.3595 52.4858 23.1727 52.4858 24.4732C52.5675 25.7743 51.5871 26.5868 50.525 26.5868ZM41.5397 22.1148V23.5786H45.052C44.9703 24.3918 44.6435 25.0424 44.235 25.449C43.7448 25.937 42.9278 26.5062 41.5397 26.5062C39.3345 26.5062 37.7006 24.7985 37.7006 22.6034C37.7006 20.4084 39.4162 18.7006 41.5397 18.7006C42.6834 18.7006 43.5821 19.1886 44.235 19.7578L45.2971 18.7006C44.3984 17.8874 43.2546 17.2368 41.6214 17.2368C38.681 17.2368 36.1483 19.6758 36.1483 22.6034C36.1483 25.5311 38.6802 27.9701 41.6214 27.9701C43.2553 27.9701 44.3984 27.4821 45.3788 26.4249C46.3591 25.449 46.6859 24.0673 46.6859 23.0101C46.6859 22.6848 46.6859 22.3595 46.6042 22.1155H41.5397V22.1148ZM78.5424 23.2533C78.2156 22.4401 77.3987 21.0583 75.602 21.0583C73.8054 21.0583 72.3348 22.4408 72.3348 24.5545C72.3348 26.5062 73.8054 28.0507 75.7654 28.0507C77.3177 28.0507 78.2973 27.0748 78.6241 26.5055L77.4804 25.6923C77.0719 26.2615 76.5817 26.6682 75.7647 26.6682C74.9477 26.6682 74.4575 26.3429 74.049 25.611L78.7051 23.6592L78.5417 23.2526L78.5424 23.2533ZM73.8047 24.3918C73.8047 23.0907 74.8667 22.3587 75.602 22.3587C76.1739 22.3587 76.7458 22.684 76.9092 23.0907L73.8054 24.3918H73.8047ZM70.0473 27.7254H71.5995V17.5621H70.0473V27.7254ZM67.5146 21.7895C67.1061 21.3829 66.4525 20.9762 65.6356 20.9762C63.9199 20.9762 62.2867 22.5214 62.2867 24.4724C62.2867 26.4235 63.8389 27.8873 65.6356 27.8873C66.4525 27.8873 67.1061 27.4807 67.4329 27.0741H67.5146V27.562C67.5146 28.8632 66.7793 29.5944 65.6356 29.5944C64.7369 29.5944 64.0833 28.9438 63.9199 28.3745L62.6127 28.9438C63.0212 29.8383 64.0016 30.9761 65.7165 30.9761C67.5139 30.9761 68.9837 29.9189 68.9837 27.3986V21.2195H67.5132V21.7888L67.5146 21.7895ZM65.7997 26.5868C64.7376 26.5868 63.8389 25.6923 63.8389 24.4732C63.8389 23.254 64.7376 22.3595 65.7997 22.3595C66.8618 22.3595 67.6787 23.254 67.6787 24.4732C67.597 25.693 66.7801 26.5868 65.7997 26.5868ZM85.6487 17.5614H81.973V27.7246H83.5253V23.9032H85.6487C87.3644 23.9032 88.9976 22.6833 88.9976 20.7323C88.9976 18.7812 87.3637 17.5614 85.6487 17.5614ZM85.7304 22.5214H83.5253V19.0252H85.7304C86.8742 19.0252 87.5278 20.0011 87.5278 20.733C87.5278 21.5462 86.8742 22.5221 85.7304 22.5221V22.5214ZM95.1235 21.0583C93.9805 21.0583 92.8367 21.5462 92.4282 22.6034L93.8171 23.1727C94.1439 22.6034 94.6341 22.4408 95.2052 22.4408C96.0222 22.4408 96.7575 22.9287 96.8392 23.742V23.8233C96.5941 23.6606 95.9405 23.4167 95.2869 23.4167C93.8171 23.4167 92.3465 24.2299 92.3465 25.693C92.3465 27.0755 93.572 27.9693 94.8784 27.9693C95.9405 27.9693 96.4307 27.4814 96.8392 26.9935H96.9209V27.8067H98.3915V23.9039C98.2281 22.0335 96.9209 21.0583 95.1243 21.0583H95.1235ZM94.9601 26.5868C94.47 26.5868 93.7354 26.3429 93.7354 25.6923C93.7354 24.879 94.6341 24.6351 95.3686 24.6351C96.0222 24.6351 96.349 24.7977 96.7575 24.9604C96.6758 25.9363 95.8588 26.5868 94.9601 26.5868ZM103.619 21.2202L101.903 25.611H101.821L100.024 21.2202H98.39L101.085 27.3994L99.5331 30.8142H101.085L105.251 21.2195H103.617L103.619 21.2202ZM89.8963 27.7254H91.4486V17.5621H89.8963V27.7254Z" fill="#757575"/>
<path d="M15.3004 9.56775L24.541 18.9918L15.3018 28.4152C15.1377 28.3448 14.9977 28.2264 14.8992 28.0754C14.8007 27.9244 14.7482 27.7465 14.7489 27.5642V10.4187C14.7489 10.2372 14.8014 10.06 14.8999 9.90829C14.9984 9.75654 15.1377 9.63818 15.3018 9.56775H15.3004ZM25.1822 19.6453L27.2714 21.775L17.3465 27.6339L25.1822 19.6453ZM28.0854 16.6872L30.6327 18.1917C30.7705 18.273 30.8843 18.3899 30.9638 18.53C31.0433 18.6702 31.0849 18.8299 31.0849 18.9918C31.0849 19.1538 31.0433 19.3128 30.9638 19.4536C30.8843 19.5945 30.7705 19.7107 30.6327 19.792L28.0847 21.2965L25.8241 18.9918L28.0854 16.6872ZM17.3465 10.3483L27.2721 16.2065L25.1822 18.3369L17.3465 10.3483Z" fill="#757575"/>
<rect x="0.414916" y="0.414916" width="119.17" height="39.1702" rx="2.58508" stroke="#757575" stroke-width="0.829832"/>
</svg>
