<svg width="80" height="22" viewBox="0 0 80 22" fill="none" xmlns="http://www.w3.org/2000/svg">
<path d="M0.487727 0.945557V20.2465H7.39155V14.4061H20.0674C20.0674 14.4061 21.4255 11.5138 21.4255 7.62022C21.4255 3.72667 20.124 0.945557 20.124 0.945557H0.487727ZM14.352 9.62262H7.33496V5.78469H14.352C14.352 5.78469 14.5217 6.73026 14.5217 7.73146C14.5217 8.73266 14.352 9.62262 14.352 9.62262Z" fill="white"/>
<path d="M79.8816 14.4062H72.6382V20.3022C72.6382 20.3022 74.6754 20.5247 76.3165 20.5247C77.9576 20.5247 79.8816 20.3022 79.8816 20.3022V14.4062Z" fill="#E4003C"/>
<path d="M79.8817 0.945633C79.8817 0.945633 78.184 0.723145 76.26 0.723145C74.336 0.723145 72.6949 0.890011 72.6949 0.890011V7.1197H79.9382V0.945633H79.8817Z" fill="#E4003C"/>
<path d="M44.9664 20.1909L44.0044 14.9068C44.0044 14.9068 41.0618 15.1849 36.6479 15.1849C32.7433 15.1849 30.7627 14.9068 30.7627 14.9068C30.7627 14.9068 30.5929 14.1281 30.4232 12.9601H40.0998V8.12093H30.3666C30.5363 6.95286 30.7061 6.17415 30.7061 6.17415C30.7061 6.17415 32.6867 5.89604 36.5913 5.89604C40.9487 5.89604 43.9479 6.17415 43.9479 6.17415L44.9664 0.945668C44.9664 0.945668 39.5339 0.445068 35.1766 0.445068C31.5549 0.445068 25.3868 0.890046 25.3868 0.890046C25.3868 0.890046 23.9155 4.7836 23.9155 10.5683C23.9155 16.2974 25.3868 20.1909 25.3868 20.1909C25.3868 20.1909 30.8193 20.6915 35.1766 20.6915C39.5339 20.6915 44.9664 20.1909 44.9664 20.1909Z" fill="white"/>
<path d="M66.6399 14.9625C66.6399 14.9625 63.4144 15.2406 60.3586 15.2406C56.4539 15.2406 54.4733 14.9625 54.4733 14.9625C54.4733 14.9625 54.0206 12.9044 54.0206 10.5683C54.0206 8.23217 54.5299 6.22978 54.5299 6.22978C54.5299 6.22978 56.5105 5.95166 60.4152 5.95166C63.4709 5.95166 66.5267 6.22978 66.5267 6.22978L67.7151 0.834424C67.7151 0.834424 62.1694 0.445068 58.9439 0.445068C55.3222 0.445068 49.154 0.890046 49.154 0.890046C49.154 0.890046 47.6827 4.7836 47.6827 10.5683C47.6827 16.2974 49.154 20.1909 49.154 20.1909C49.154 20.1909 54.5865 20.6915 58.9439 20.6915C62.1128 20.6915 67.6585 20.3022 67.6585 20.3022L66.6399 14.9625Z" fill="white"/>
</svg>
