<svg width="197" height="53" viewBox="0 0 197 53" fill="none" xmlns="http://www.w3.org/2000/svg">
<path d="M1.20093 2.3363V50.0242H18.2016V35.5942H49.4159C49.4159 35.5942 52.7603 28.4479 52.7603 18.8278C52.7603 9.20776 49.5552 2.3363 49.5552 2.3363H1.20093ZM35.3416 23.7753H18.0622V14.2926H35.3416C35.3416 14.2926 35.7596 16.6289 35.7596 19.1027C35.7596 21.5764 35.3416 23.7753 35.3416 23.7753Z" fill="#2E2E2E"/>
<path d="M196.708 35.5942H178.872V50.1617C178.872 50.1617 183.888 50.7115 187.929 50.7115C191.97 50.7115 196.708 50.1617 196.708 50.1617V35.5942Z" fill="#2E2E2E"/>
<path d="M196.709 2.33634C196.709 2.33634 192.528 1.78662 187.79 1.78662C183.052 1.78662 179.011 2.19891 179.011 2.19891V17.591H196.848V2.33634H196.709Z" fill="#2E2E2E"/>
<path d="M110.73 49.8869L108.361 36.8311C108.361 36.8311 101.115 37.5182 90.2455 37.5182C80.6304 37.5182 75.7532 36.8311 75.7532 36.8311C75.7532 36.8311 75.3351 34.9071 74.9171 32.0211H98.7458V20.0647H74.7777C75.1958 17.1787 75.6138 15.2547 75.6138 15.2547C75.6138 15.2547 80.491 14.5675 90.1062 14.5675C100.836 14.5675 108.222 15.2547 108.222 15.2547L110.73 2.33635C110.73 2.33635 97.3523 1.09949 86.6224 1.09949C77.704 1.09949 62.5149 2.19892 62.5149 2.19892C62.5149 2.19892 58.8918 11.819 58.8918 26.1116C58.8918 40.2668 62.5149 49.8869 62.5149 49.8869C62.5149 49.8869 75.8925 51.1237 86.6224 51.1237C97.3523 51.1237 110.73 49.8869 110.73 49.8869Z" fill="#2E2E2E"/>
<path d="M164.101 36.9685C164.101 36.9685 156.158 37.6557 148.633 37.6557C139.018 37.6557 134.141 36.9685 134.141 36.9685C134.141 36.9685 133.026 31.8836 133.026 26.1116C133.026 20.3396 134.28 15.3921 134.28 15.3921C134.28 15.3921 139.157 14.705 148.772 14.705C156.297 14.705 163.822 15.3921 163.822 15.3921L166.748 2.06149C166.748 2.06149 153.092 1.09949 145.149 1.09949C136.231 1.09949 121.042 2.19892 121.042 2.19892C121.042 2.19892 117.419 11.819 117.419 26.1116C117.419 40.2668 121.042 49.8869 121.042 49.8869C121.042 49.8869 134.419 51.1237 145.149 51.1237C152.953 51.1237 166.609 50.1617 166.609 50.1617L164.101 36.9685Z" fill="#2E2E2E"/>
</svg>
